# xmcd CD database file
#
# Track frame offsets:
#	150
#	19675
#	32435
#	48317
#	66147
#	82315
#	100905
#	119445
#	134050
#	149655
#
# Disc length: 2295 seconds
#
# Revision: 2
# Processed by: cddbd v1.4PL0 Copyright (c) Steve Scherf et al.
# Submitted via: CDex 1.50Beta7
#
DISCID=9208f50a
DTITLE=Lila McCann - Lila
DYEAR=1997
DGENRE=Country
TTITLE0=I Wanna Fall In Love
TTITLE1=Just One Little Kiss
TTITLE2=Almost Over You
TTITLE3=Down Came A Blackbird
TTITLE4=Already Somebody's Lover
TTITLE5=Changing Faces
TTITLE6=Yippy Ky Yay
TTITLE7=I Feel For You
TTITLE8=Saddle My Dreams
TTITLE9=A Rain Of Angels
EXTD=YEAR: 1997
EXTT0=
EXTT1=
EXTT2=
EXTT3=
EXTT4=
EXTT5=
EXTT6=
EXTT7=
EXTT8=
EXTT9=
PLAYORDER=
